<svg xmlns="http://www.w3.org/2000/svg" width="32" height="32" viewBox="0 0 24 24"><path fill="none" stroke="currentColor" stroke-width="2" d="M10.293 4.793c.78-1.277 2.634-1.277 3.414 0l7.433 12.164C21.955 18.29 20.996 20 19.434 20H4.566c-1.562 0-2.52-1.71-1.706-3.043l7.433-12.164Z"/></svg>

<svg xmlns="http://www.w3.org/2000/svg" width="32" height="32" viewBox="0 0 256 256"><path fill="currentColor" d="M78 36a42 42 0 1 0 42 42a42 42 0 0 0-42-42Zm0 60a18 18 0 1 1 18-18a18 18 0 0 1-18 18Zm100 24a42 42 0 1 0-42-42a42 42 0 0 0 42 42Zm0-60a18 18 0 1 1-18 18a18 18 0 0 1 18-18ZM78 136a42 42 0 1 0 42 42a42 42 0 0 0-42-42Zm0 60a18 18 0 1 1 18-18a18 18 0 0 1-18 18Zm100-60a42 42 0 1 0 42 42a42 42 0 0 0-42-42Zm0 60a18 18 0 1 1 18-18a18 18 0 0 1-18 18Z"/></svg>

<svg xmlns="http://www.w3.org/2000/svg" width="32" height="32" viewBox="0 0 256 256"><path fill="currentColor" d="m230.86 109.25l-61.68-22.43l-22.43-61.68a19.95 19.95 0 0 0-37.5 0L86.82 86.82l-61.68 22.43a19.95 19.95 0 0 0 0 37.5l61.68 22.43l22.43 61.68a19.95 19.95 0 0 0 37.5 0l22.43-61.68l61.68-22.43a19.95 19.95 0 0 0 0-37.5Zm-71.65 38a19.92 19.92 0 0 0-11.94 11.94l-19.27 53l-19.27-53a19.92 19.92 0 0 0-11.94-11.94l-53-19.25l53-19.27a19.92 19.92 0 0 0 11.94-11.94l19.27-53l19.27 53a19.92 19.92 0 0 0 11.94 11.94l53 19.27Z"/></svg>

<svg xmlns="http://www.w3.org/2000/svg" width="32" height="32" viewBox="0 0 24 24"><path fill="currentColor" d="M5 21q-.825 0-1.413-.587Q3 19.825 3 19V5q0-.825.587-1.413Q4.175 3 5 3h14q.825 0 1.413.587Q21 4.175 21 5v14q0 .825-.587 1.413Q19.825 21 19 21Zm0-2h14V5H5v14Zm0 0V5v14Z"/></svg>

<svg xmlns="http://www.w3.org/2000/svg" width="32" height="32" viewBox="0 0 256 256"><path fill="currentColor" d="M128 20a108 108 0 1 0 108 108A108.12 108.12 0 0 0 128 20Zm0 192a84 84 0 1 1 84-84a84.09 84.09 0 0 1-84 84Z"/></svg>
